<svg width="18" height="18" viewBox="0 0 18 18" fill="none" xmlns="http://www.w3.org/2000/svg">
<path d="M15.2103 5.54982L12.2103 3.04982C11.654 2.58626 10.846 2.58626 10.2897 3.04982L7.71028 5.19936C7.15401 5.66291 6.34599 5.66291 5.78972 5.19936L3.48014 3.2747C2.99164 2.86762 2.25 3.21499 2.25 3.85087V11.297C2.25 11.7422 2.44773 12.1644 2.78972 12.4494L5.78972 14.9494C6.06786 15.1811 6.40893 15.297 6.75 15.297M6.75 5.99959V14.9996M15.75 10.4996C15.75 12.1564 13.5 14.9996 12.75 14.9996C12 14.9996 9.75 12.1564 9.75 10.4996C9.75 8.84273 11.0931 7.49959 12.75 7.49959C14.4069 7.49959 15.75 8.84273 15.75 10.4996Z" stroke="#E73E11" stroke-width="1.67" stroke-linecap="round"/>
</svg>
